<?xml version="1.0" encoding="utf-8"?>
<!-- Generator: Adobe Illustrator 25.2.0, SVG Export Plug-In . SVG Version: 6.00 Build 0)  -->
<svg version="1.1" baseProfile="tiny" id="Logos" xmlns="http://www.w3.org/2000/svg" xmlns:xlink="http://www.w3.org/1999/xlink"
	 x="0px" y="0px" viewBox="0 0 620.8 150" overflow="visible" xml:space="preserve">
<linearGradient id="SVGID_1_" gradientUnits="userSpaceOnUse" x1="80.5948" y1="75" x2="610.1702" y2="75">
	<stop  offset="0.1822" style="stop-color:#263238"/>
	<stop  offset="1" style="stop-color:#546E7B"/>
</linearGradient>
<path fill="url(#SVGID_1_)" d="M108.2,87.5H90.7L87.9,94h-7.3l15.1-36.2h7.3L118.2,94h-7.3L108.2,87.5z M105.8,81.8l-6.4-15.2
	L93,81.8H105.8z M147.2,57.2V94h-6.4v-4.2c-2.2,3.1-5.4,4.8-9.4,4.8c-7.2,0-12.5-5.9-12.5-14.3c0-8.3,5.3-14.2,12.5-14.2
	c4,0,7.3,1.8,9.4,4.8V57.2H147.2z M140.8,80.4c0-5.1-3.2-8.7-7.7-8.7c-4.6,0-7.9,3.6-7.9,8.7c0,5.1,3.3,8.8,7.9,8.8
	C137.7,89.2,140.8,85.5,140.8,80.4z M193.2,76.7V94H187V77.7c0-3.6-2.2-6.1-5.3-6.1c-3.5,0-6,2.4-6,5.7V94h-6.3V77.7
	c0-3.6-2.2-6.1-5.3-6.1c-3.5,0-6,2.4-6,5.7V94h-6.4V66.8h6.4v3.7c1.4-2.6,4.2-4.3,7.6-4.3c3.8,0,7,1.9,8.7,5.2
	c1.3-3.2,4.7-5.2,8.8-5.2C189,66.1,193.2,70.5,193.2,76.7z M197.1,59c0-1.9,1.6-3.6,3.7-3.6c2,0,3.6,1.7,3.6,3.6
	c0,1.9-1.6,3.7-3.6,3.7C198.8,62.7,197.1,60.9,197.1,59z M197.6,66.8h6.4V94h-6.4V66.8z M233.4,76.7V94h-6.2V78
	c0-3.7-2.4-6.3-5.7-6.3s-6.2,2.3-6.6,5.2V94h-6.4V66.8h6.4v3.6c1.7-2.5,4.8-4.3,8.4-4.3C229.3,66.1,233.4,70.5,233.4,76.7z
	 M237.3,59c0-1.9,1.6-3.6,3.7-3.6c2,0,3.6,1.7,3.6,3.6c0,1.9-1.6,3.7-3.6,3.7C239,62.7,237.3,60.9,237.3,59z M237.8,66.8h6.4V94
	h-6.4V66.8z M246.8,90.5l2.9-4.5c2.6,1.9,5.7,3.2,9.1,3.2c2.6,0,4.4-1.1,4.4-2.8c0-2.1-2.4-2.8-5.5-3.6c-5.9-1.5-9.6-3.2-9.7-8.1
	c0-5.1,4.2-8.6,10.3-8.6c3.7,0,7.5,1.3,10.4,3.3l-2.7,4.7c-2.6-1.6-5.4-2.5-7.7-2.5c-2.3,0-4,0.9-4,2.4c0,1.7,1.4,2.3,5.6,3.5
	c4.6,1.3,9.5,2.8,9.5,8.5c0,5.2-4.3,8.6-10.7,8.6C254.6,94.7,250.1,93.2,246.8,90.5z M287.8,92.5c-1.5,1.3-3.7,2.2-5.8,2.2
	c-4.5,0-7.7-3.3-7.7-7.9V72.1h-4v-5.3h4v-7.5h6.3v7.5h6.2v5.3h-6.2V86c0,1.8,1.2,3.2,2.7,3.2c1.1,0,2.1-0.4,2.7-1L287.8,92.5z
	 M306.5,66.1v5.5c-5.8,0-9.7,3.5-9.7,8.6V94h-6.4V66.8h6.4V72C298.5,68.4,302,66.1,306.5,66.1z M332.2,77.6V94h-6.3v-3.3
	c-2,2.5-5.4,3.9-8.6,3.9c-5.8,0-10.2-3.4-10.2-8.7c0-5.4,5-9.1,11.1-9.1c2.5,0,5.2,0.5,7.6,1.5v-0.7c0-3.2-1.7-6.2-6.7-6.2
	c-2.6,0-5.1,0.9-7.4,2.1l-2.2-4.5c3.8-1.9,7.4-2.8,10.9-2.8C327.7,66.1,332.2,70.7,332.2,77.6z M325.9,85.5v-3.1
	c-2-0.7-4.3-1.1-6.7-1.1c-3.2,0-5.8,1.8-5.8,4.4c0,2.6,2.3,4.2,5.3,4.2C321.9,90,325.2,88.4,325.9,85.5z M335.1,80.4
	c0-7.7,6.7-14.2,14.6-14.2c4.1,0,7.7,1.7,10.3,4.4l-4.3,3.8c-1.5-1.6-3.7-2.7-6.1-2.7c-4.5,0-8.2,4-8.2,8.7c0,4.8,3.7,8.8,8.2,8.8
	c2.4,0,4.7-1.1,6.2-2.8l4.3,3.7c-2.6,2.8-6.3,4.6-10.6,4.6C341.8,94.7,335.1,88.1,335.1,80.4z M362.2,59c0-1.9,1.6-3.6,3.7-3.6
	c2,0,3.6,1.7,3.6,3.6c0,1.9-1.6,3.7-3.6,3.7C363.9,62.7,362.2,60.9,362.2,59z M362.6,66.8h6.4V94h-6.4V66.8z M372.1,80.4
	c0-7.7,6.7-14.2,14.6-14.2c7.9,0,14.6,6.5,14.6,14.2s-6.7,14.3-14.6,14.3C378.8,94.7,372.1,88.1,372.1,80.4z M395,80.4
	c0-4.7-3.8-8.7-8.3-8.7c-4.5,0-8.3,4-8.3,8.7c0,4.8,3.8,8.8,8.3,8.8C391.2,89.2,395,85.2,395,80.4z M387.8,55.7l6,1.2l-7.7,6.8h-4.5
	L387.8,55.7z M429.2,76.7V94H423V78c0-3.7-2.4-6.3-5.7-6.3s-6.2,2.3-6.6,5.2V94h-6.4V66.8h6.4v3.6c1.7-2.5,4.8-4.3,8.4-4.3
	C425.1,66.1,429.2,70.5,429.2,76.7z M446,57.8h15.8c7.7,0,13.5,5,13.5,12s-5.8,12-13.5,12h-9.2V94H446V57.8z M461.1,75.8
	c4.5,0,7.6-2.3,7.6-6s-3.1-6-7.6-6h-8.4v11.9H461.1z M502.5,66.8V94h-6.4v-3.6c-1.7,2.5-4.8,4.3-8.4,4.3c-6,0-10.1-4.4-10.1-10.5
	V66.8h6.2v16.1c0,3.7,2.4,6.3,5.7,6.3s6.2-2.3,6.6-5.2V66.8H502.5z M489.5,63.7H485l6.2-8l6,1.2L489.5,63.7z M535.5,80.4
	c0,8.4-5.3,14.3-12.5,14.3c-4.1,0-7.3-1.8-9.5-5V94h-6.4V57.2h6.4v13.9c2.2-3.1,5.4-5,9.5-5C530.2,66.1,535.5,72,535.5,80.4z
	 M529.1,80.4c0-5.1-3.3-8.7-7.9-8.7c-4.5,0-7.7,3.6-7.7,8.7c0,5.1,3.2,8.8,7.7,8.8C525.9,89.2,529.1,85.5,529.1,80.4z M538.7,57.2
	h6.4V94h-6.4V57.2z M549.2,59c0-1.9,1.6-3.6,3.7-3.6c2,0,3.6,1.7,3.6,3.6c0,1.9-1.6,3.7-3.6,3.7C550.8,62.7,549.2,60.9,549.2,59z
	 M549.6,66.8h6.4V94h-6.4V66.8z M559.1,80.4c0-7.7,6.7-14.2,14.6-14.2c4.1,0,7.7,1.7,10.3,4.4l-4.3,3.8c-1.5-1.6-3.7-2.7-6.1-2.7
	c-4.5,0-8.2,4-8.2,8.7c0,4.8,3.7,8.8,8.2,8.8c2.4,0,4.7-1.1,6.2-2.8l4.3,3.7c-2.6,2.8-6.3,4.6-10.6,4.6
	C565.8,94.7,559.1,88.1,559.1,80.4z M610.2,77.6V94h-6.3v-3.3c-2,2.5-5.4,3.9-8.6,3.9c-5.8,0-10.2-3.4-10.2-8.7
	c0-5.4,5-9.1,11.1-9.1c2.5,0,5.2,0.5,7.6,1.5v-0.7c0-3.2-1.7-6.2-6.7-6.2c-2.6,0-5.1,0.9-7.4,2.1l-2.2-4.5c3.8-1.9,7.4-2.8,10.9-2.8
	C605.7,66.1,610.2,70.7,610.2,77.6z M603.9,85.5v-3.1c-2-0.7-4.3-1.1-6.7-1.1c-3.2,0-5.8,1.8-5.8,4.4c0,2.6,2.3,4.2,5.3,4.2
	C599.8,90,603.2,88.4,603.9,85.5z"/>
<linearGradient id="SVGID_2_" gradientUnits="userSpaceOnUse" x1="0.6026" y1="75" x2="73.8074" y2="75">
	<stop  offset="0.1822" style="stop-color:#263238"/>
	<stop  offset="1" style="stop-color:#546E7B"/>
</linearGradient>
<path fill="url(#SVGID_2_)" d="M46.2,52c0.4-0.9,1.5-1.3,2.3-0.9c0.8,0.4,1.2,1.5,0.8,2.4c-0.4,0.9-1.5,1.3-2.3,0.9
	C46.1,54,45.7,52.9,46.2,52z M28.5,53.1c0.2,0.5,0.7,0.7,1.3,0.5c0.6-0.2,1.2-0.7,1.1-1.3l-0.2-0.6c-0.4,0-0.9,0.1-1.4,0.2
	C28.7,52.1,28.4,52.6,28.5,53.1z M22.3,92.2c-0.7-0.6-1.7-0.5-2.4,0.3s-0.7,1.8,0,2.4c0.7,0.6,1.7,0.5,2.4-0.3
	C23,93.9,23,92.8,22.3,92.2z M45.9,96.9c-0.2-0.5-0.7-0.7-1.3-0.5c-0.6,0.2-1.2,0.7-1.1,1.3l0.2,0.6c0.4,0,0.9-0.1,1.4-0.2
	C45.7,97.9,46.1,97.4,45.9,96.9z M58.7,82.7c-0.3,0.9,0.2,1.8,1.2,2.1c1,0.4,1.9,0,2.3-0.9c0.3-0.9-0.2-1.8-1.2-2.1
	C59.9,81.4,59,81.8,58.7,82.7z M63.3,68.5c0.7-0.2,1-1,0.7-1.9l-0.5-1.7l-2.4,0.8l0.5,1.7C61.9,68.2,62.6,68.7,63.3,68.5z M73.8,75
	c0,20.2-16.4,36.6-36.6,36.6C17,111.6,0.6,95.2,0.6,75S17,38.4,37.2,38.4C57.4,38.4,73.8,54.8,73.8,75z M57.1,65.6l0.4,1.3l2.4-0.8
	l0.6,1.8c0.5,1.5,1.9,2.4,3.2,1.9c1.4-0.5,2-1.9,1.5-3.4l-1-3.1L57.1,65.6z M60,75.1c0-0.7,0.6-1.2,1.3-1.2l3.3,0.1l0-1.3l-3.6-0.1
	c-1.3,0-2.2,0.8-2.2,2.1c0,0.7,0.3,1.4,0.9,1.8l-0.8,0l0,1.3l5.7,0.1l0-1.3l-3.6-0.1C60.5,76.4,60,75.8,60,75.1z M54.3,53.4
	l-3.9,4.1l1,0.9l2.5-2.6c0.5-0.4,1.2-0.3,1.7,0.2c0.5,0.5,0.5,1.2,0,1.8l-2.3,2.4l0.9,0.9l2.5-2.6c0.9-0.9,0.9-2.2,0-3
	c-0.5-0.5-1.3-0.7-1.9-0.6l0.5-0.5L54.3,53.4z M48.2,49.1l0.8,0.4l2.1-0.6l-1-0.8L48.2,49.1z M46.5,55.4c1.5,0.7,3.3,0.1,4-1.4
	c0.7-1.5,0-3.3-1.5-4c-1.5-0.7-3.3-0.1-4,1.4C44.3,52.9,45,54.7,46.5,55.4z M42.8,47.2c0.4,0.1,0.8-0.2,0.9-0.6
	c0.1-0.4-0.2-0.8-0.6-0.9c-0.4-0.1-0.8,0.2-0.9,0.6C42.1,46.7,42.4,47.2,42.8,47.2z M40.9,53.5l1.3,0.3l1.1-5.5L42,48L40.9,53.5z
	 M34.1,50.4c0,1.6,1.5,2.9,3.1,2.9c0.9,0,1.6-0.4,2.2-1l-0.9-0.8c-0.3,0.4-0.8,0.6-1.3,0.6c-0.9,0-1.7-0.8-1.7-1.8
	c0-1,0.7-1.8,1.7-1.9c0.5,0,1,0.2,1.3,0.5l0.9-0.8c-0.5-0.5-1.3-0.9-2.2-0.9C35.5,47.4,34.1,48.8,34.1,50.4z M26.7,50l0.7,0.7
	c0.4-0.4,0.8-0.7,1.3-0.9c1-0.3,1.5,0.2,1.7,0.8l0,0.1c-0.6,0-1.1,0-1.6,0.2c-1.2,0.4-2,1.4-1.6,2.5c0.3,1,1.4,1.4,2.6,1.1
	c0.6-0.2,1.2-0.7,1.4-1.3l0.2,0.6l1.2-0.4l-1.1-3.2c-0.4-1.4-1.6-2-3.1-1.5C28,49,27.3,49.4,26.7,50z M15.8,55.4l1.1,1.1l-0.6,0.6
	l0.8,0.8l0.6-0.6l2.2,2.1c0.7,0.7,1.6,0.7,2.3,0c0.3-0.3,0.5-0.8,0.5-1.2l-0.9-0.4c0,0.2-0.1,0.4-0.2,0.5c-0.2,0.2-0.6,0.2-0.9-0.1
	l-2.1-2l0.9-0.9l-0.8-0.8l-0.9,0.9l-1.1-1.1L15.8,55.4z M13.9,63.7c0.9,0.5,1.6,0,2.5-0.9c0.5-0.5,0.9-0.8,1.2-0.6
	c0.3,0.2,0.3,0.6,0,1.1c-0.4,0.6-0.9,1-1.5,1.3l0.5,1c0.8-0.3,1.6-0.9,2-1.7c0.7-1.1,0.5-2.3-0.4-2.8c-1-0.6-1.8,0.1-2.5,0.8
	c-0.7,0.6-0.9,0.8-1.2,0.6c-0.3-0.2-0.2-0.6,0-1c0.3-0.4,0.7-0.8,1.3-1.1l-0.6-1c-0.7,0.3-1.3,0.8-1.7,1.5
	C12.8,62,13,63.1,13.9,63.7z M11,66.9l5.4,1.8l0.4-1.3l-5.4-1.8L11,66.9z M9.2,79.1c-0.1-0.4-0.5-0.7-0.9-0.6
	c-0.4,0.1-0.7,0.4-0.6,0.9c0.1,0.4,0.5,0.7,0.9,0.7C8.9,79.9,9.2,79.5,9.2,79.1z M9.4,66.4c0.4,0.1,0.8-0.1,1-0.5
	c0.1-0.4-0.1-0.8-0.5-1c-0.4-0.1-0.8,0.1-1,0.5C8.8,65.9,9,66.3,9.4,66.4z M9.6,75.1l5.6,0.5l0.1-1.3L11.8,74
	c-0.6-0.1-1-0.8-0.9-1.5c0.1-0.7,0.7-1.1,1.4-1.1l3.3,0.3l0.1-1.3l-3.6-0.3C10.9,70,9.9,70.8,9.8,72c-0.1,0.7,0.2,1.4,0.7,1.8
	l-0.8-0.1L9.6,75.1z M10.1,79.6l5.6-0.8l-0.2-1.3l-5.6,0.8L10.1,79.6z M14.4,90.9l5.1-2.5l-0.6-1.2l-3.1,1.5
	c-0.6,0.3-1.3,0.1-1.6-0.6c-0.3-0.6,0-1.2,0.7-1.5l3-1.5l-0.6-1.2l-3.1,1.5c-0.6,0.3-1.3,0.1-1.6-0.6c-0.3-0.6,0-1.2,0.7-1.5l3-1.5
	l-0.6-1.2l-3.2,1.6c-1.2,0.6-1.6,1.8-1.1,2.8c0.4,0.8,1.1,1.2,1.8,1.2c-0.4,0.6-0.5,1.4-0.2,2.1c0.3,0.6,0.9,1,1.5,1l-0.7,0.3
	L14.4,90.9z M23.3,91.6c-0.6-0.5-1.4-0.7-2.1-0.5l0.6-0.7l-1-0.9l-5.1,5.7l1,0.9l1.9-2.2c-0.1,0.8,0.2,1.5,0.8,2.1
	c1.1,1,2.8,0.8,3.9-0.5C24.4,94.2,24.4,92.6,23.3,91.6z M25.2,56.8l-1.6-2.4c-0.6-0.9-0.3-1.9,0.7-2.6l-0.6-1
	c-0.8,0.5-1.1,1.3-1,2.1l-0.6-0.9L21,52.8l3.1,4.7L25.2,56.8z M33.2,96.8l-1.4-0.5l-1,1.1L27.3,96l-0.1-1.5L25.9,94l0.3,8.1l1.4,0.5
	L33.2,96.8z M40.5,80.5v1.7h3.3v-8.7c0-3.7-2.4-6.1-6.2-6.1c-1.8,0-3.7,0.5-5.8,1.5l1.2,2.4c1.2-0.6,2.5-1.1,3.9-1.1
	c2.6,0,3.5,1.6,3.5,3.3v0.4c-1.3-0.5-2.7-0.8-4-0.8c-3.2,0-5.9,2-5.9,4.8c0,2.8,2.3,4.6,5.4,4.6C37.6,82.6,39.5,81.8,40.5,80.5z
	 M47.8,99.9L47,99.2c-0.4,0.4-0.8,0.7-1.3,0.9c-1,0.3-1.5-0.2-1.7-0.8l0-0.1c0.6,0,1.1,0,1.6-0.2c1.2-0.4,2-1.5,1.6-2.5
	c-0.3-1-1.4-1.4-2.6-1.1c-0.6,0.2-1.2,0.7-1.4,1.3l-0.2-0.6l-1.2,0.4l1.1,3.2c0.4,1.4,1.6,2,3.1,1.5C46.5,101,47.1,100.6,47.8,99.9z
	 M53.5,93.7c-0.9-1.3-2.8-1.6-4.2-0.7c-0.7,0.5-1.1,1.3-1.2,2l1.2,0.1c0.1-0.5,0.3-0.9,0.7-1.2c0.8-0.5,1.9-0.3,2.4,0.5
	c0.6,0.8,0.4,1.9-0.3,2.5c-0.4,0.3-0.9,0.4-1.4,0.3l-0.3,1.2c0.8,0.1,1.6,0,2.3-0.5C54,96.9,54.4,95,53.5,93.7z M57.1,93.9l0.9-1
	l-4.2-3.8l-0.9,1L57.1,93.9z M59.3,94c-0.3-0.3-0.8-0.3-1.1,0.1c-0.3,0.3-0.2,0.8,0.1,1.1c0.3,0.3,0.8,0.3,1.1-0.1
	C59.6,94.7,59.6,94.2,59.3,94z M62.2,90.6l-6.4-4.2L55,87.5l6.4,4.2L62.2,90.6z M65.9,82.1l-7.2-2.5l-0.4,1.3l0.8,0.3
	c-0.8,0.2-1.3,0.7-1.6,1.5c-0.5,1.4,0.3,2.9,1.9,3.4c1.6,0.6,3.2-0.1,3.6-1.5c0.3-0.8,0.1-1.6-0.3-2.2l2.7,1L65.9,82.1z M66.7,76.8
	l0.3-1.2l-1.6-1.3l0,0.9L66.7,76.8z M40.5,76.1c-1.1-0.4-2.3-0.6-3.5-0.6c-1.7,0-3.1,0.9-3.1,2.3c0,1.4,1.2,2.2,2.8,2.2
	c1.6,0,3.4-0.8,3.8-2.4V76.1z M27.5,100.7l2.4-2.5l-2.5-0.9L27.5,100.7z"/>
</svg>
