<?xml version="1.0" encoding="utf-8"?>
<!-- Generator: Adobe Illustrator 25.2.0, SVG Export Plug-In . SVG Version: 6.00 Build 0)  -->
<svg version="1.1" baseProfile="tiny" id="Logos" xmlns="http://www.w3.org/2000/svg" xmlns:xlink="http://www.w3.org/1999/xlink"
	 x="0px" y="0px" viewBox="0 0 80 80" overflow="visible" xml:space="preserve">
<linearGradient id="SVGID_1_" gradientUnits="userSpaceOnUse" x1="3.3976" y1="40" x2="76.6024" y2="40">
	<stop  offset="0.1822" style="stop-color:#263238"/>
	<stop  offset="1" style="stop-color:#546E7B"/>
</linearGradient>
<path fill="url(#SVGID_1_)" d="M49,17c0.4-0.9,1.5-1.3,2.3-0.9c0.8,0.4,1.2,1.5,0.8,2.4c-0.4,0.9-1.5,1.3-2.3,0.9
	C48.9,19,48.5,17.9,49,17z M31.3,18.1c0.2,0.5,0.7,0.7,1.3,0.5c0.6-0.2,1.2-0.7,1.1-1.3l-0.2-0.6c-0.4,0-0.9,0.1-1.4,0.2
	C31.5,17.1,31.1,17.6,31.3,18.1z M25,57.2c-0.7-0.6-1.7-0.5-2.4,0.3s-0.7,1.8,0,2.4c0.7,0.6,1.7,0.5,2.4-0.3
	C25.8,58.9,25.8,57.8,25,57.2z M48.7,61.9c-0.2-0.5-0.7-0.7-1.3-0.5c-0.6,0.2-1.2,0.7-1.1,1.3l0.2,0.6c0.4,0,0.9-0.1,1.4-0.2
	C48.5,62.9,48.9,62.4,48.7,61.9z M61.5,47.7c-0.3,0.9,0.2,1.8,1.2,2.1c1,0.4,1.9,0,2.3-0.9c0.3-0.9-0.2-1.8-1.2-2.1
	C62.7,46.4,61.8,46.8,61.5,47.7z M66.1,33.5c0.7-0.2,1-1,0.7-1.9l-0.5-1.7l-2.4,0.8l0.5,1.7C64.7,33.2,65.4,33.7,66.1,33.5z
	 M76.6,40c0,20.2-16.4,36.6-36.6,36.6C19.8,76.6,3.4,60.2,3.4,40S19.8,3.4,40,3.4C60.2,3.4,76.6,19.8,76.6,40z M59.9,30.6l0.4,1.3
	l2.4-0.8l0.6,1.8c0.5,1.5,1.9,2.4,3.2,1.9c1.4-0.5,2-1.9,1.5-3.4l-1-3.1L59.9,30.6z M62.8,40.1c0-0.7,0.6-1.2,1.3-1.2l3.3,0.1l0-1.3
	l-3.6-0.1c-1.3,0-2.2,0.8-2.2,2.1c0,0.7,0.3,1.4,0.9,1.8l-0.8,0l0,1.3l5.7,0.1l0-1.3l-3.6-0.1C63.3,41.4,62.8,40.8,62.8,40.1z
	 M57.1,18.4l-3.9,4.1l1,0.9l2.5-2.6c0.5-0.4,1.2-0.3,1.7,0.2c0.5,0.5,0.5,1.2,0,1.8L56,25.1l0.9,0.9l2.5-2.6c0.9-0.9,0.9-2.2,0-3
	c-0.5-0.5-1.3-0.7-1.9-0.6l0.5-0.5L57.1,18.4z M51,14.1l0.8,0.4l2.1-0.6l-1-0.8L51,14.1z M49.2,20.4c1.5,0.7,3.3,0.1,4-1.4
	c0.7-1.5,0-3.3-1.5-4c-1.5-0.7-3.3-0.1-4,1.4C47.1,17.9,47.8,19.7,49.2,20.4z M45.6,12.2c0.4,0.1,0.8-0.2,0.9-0.6
	c0.1-0.4-0.2-0.8-0.6-0.9c-0.4-0.1-0.8,0.2-0.9,0.6C44.9,11.7,45.2,12.2,45.6,12.2z M43.7,18.5l1.3,0.3l1.1-5.5L44.8,13L43.7,18.5z
	 M36.9,15.4c0,1.6,1.5,2.9,3.1,2.9c0.9,0,1.6-0.4,2.2-1l-0.9-0.8c-0.3,0.4-0.8,0.6-1.3,0.6c-0.9,0-1.7-0.8-1.7-1.8
	c0-1,0.7-1.8,1.7-1.9c0.5,0,1,0.2,1.3,0.5l0.9-0.8c-0.5-0.5-1.3-0.9-2.2-0.9C38.3,12.4,36.9,13.8,36.9,15.4z M29.5,15l0.7,0.7
	c0.4-0.4,0.8-0.7,1.3-0.9c1-0.3,1.5,0.2,1.7,0.8l0,0.1c-0.6,0-1.1,0-1.6,0.2c-1.2,0.4-2,1.4-1.6,2.5c0.3,1,1.4,1.4,2.6,1.1
	c0.6-0.2,1.2-0.7,1.4-1.3l0.2,0.6l1.2-0.4l-1.1-3.2c-0.4-1.4-1.6-2-3.1-1.5C30.8,14,30.1,14.4,29.5,15z M18.6,20.4l1.1,1.1l-0.6,0.6
	l0.8,0.8l0.6-0.6l2.2,2.1c0.7,0.7,1.6,0.7,2.3,0c0.3-0.3,0.5-0.8,0.5-1.2l-0.9-0.4c0,0.2-0.1,0.4-0.2,0.5c-0.2,0.2-0.6,0.2-0.9-0.1
	l-2.1-2l0.9-0.9l-0.8-0.8l-0.9,0.9l-1.1-1.1L18.6,20.4z M16.7,28.7c0.9,0.5,1.6,0,2.5-0.9c0.5-0.5,0.9-0.8,1.2-0.6
	c0.3,0.2,0.3,0.6,0,1.1c-0.4,0.6-0.9,1-1.5,1.3l0.5,1c0.8-0.3,1.6-0.9,2-1.7c0.7-1.1,0.5-2.3-0.4-2.8c-1-0.6-1.8,0.1-2.5,0.8
	c-0.7,0.6-0.9,0.8-1.2,0.6c-0.3-0.2-0.2-0.6,0-1c0.3-0.4,0.7-0.8,1.3-1.1l-0.6-1c-0.7,0.3-1.3,0.8-1.7,1.5
	C15.6,27,15.8,28.1,16.7,28.7z M13.8,31.9l5.4,1.8l0.4-1.3l-5.4-1.8L13.8,31.9z M12,44.1c-0.1-0.4-0.5-0.7-0.9-0.6
	c-0.4,0.1-0.7,0.4-0.6,0.9c0.1,0.4,0.5,0.7,0.9,0.7C11.7,44.9,12,44.5,12,44.1z M12.2,31.4c0.4,0.1,0.8-0.1,1-0.5
	c0.1-0.4-0.1-0.8-0.5-1c-0.4-0.1-0.8,0.1-1,0.5C11.6,30.9,11.8,31.3,12.2,31.4z M12.4,40.1l5.6,0.5l0.1-1.3L14.6,39
	c-0.6-0.1-1-0.8-0.9-1.5c0.1-0.7,0.7-1.1,1.4-1.1l3.3,0.3l0.1-1.3l-3.6-0.3c-1.3-0.1-2.3,0.7-2.4,1.9c-0.1,0.7,0.2,1.4,0.7,1.8
	l-0.8-0.1L12.4,40.1z M12.9,44.6l5.6-0.8l-0.2-1.3l-5.6,0.8L12.9,44.6z M17.2,55.9l5.1-2.5l-0.6-1.2l-3.1,1.5
	c-0.6,0.3-1.3,0.1-1.6-0.6c-0.3-0.6,0-1.2,0.7-1.5l3-1.5l-0.6-1.2L17,50.4c-0.6,0.3-1.3,0.1-1.6-0.6c-0.3-0.6,0-1.2,0.7-1.5l3-1.5
	l-0.6-1.2l-3.2,1.6c-1.2,0.6-1.6,1.8-1.1,2.8c0.4,0.8,1.1,1.2,1.8,1.2c-0.4,0.6-0.5,1.4-0.2,2.1c0.3,0.6,0.9,1,1.5,1l-0.7,0.3
	L17.2,55.9z M26.1,56.6c-0.6-0.5-1.4-0.7-2.1-0.5l0.6-0.7l-1-0.9l-5.1,5.7l1,0.9l1.9-2.2c-0.1,0.8,0.2,1.5,0.8,2.1
	c1.1,1,2.8,0.8,3.9-0.5C27.2,59.2,27.2,57.6,26.1,56.6z M28,21.8l-1.6-2.4c-0.6-0.9-0.3-1.9,0.7-2.6l-0.6-1c-0.8,0.5-1.1,1.3-1,2.1
	l-0.6-0.9l-1.1,0.7l3.1,4.7L28,21.8z M36,61.8l-1.4-0.5l-1,1.1L30.1,61l-0.1-1.5L28.7,59l0.3,8.1l1.4,0.5L36,61.8z M43.3,45.5v1.7
	h3.3v-8.7c0-3.7-2.4-6.1-6.2-6.1c-1.8,0-3.7,0.5-5.8,1.5l1.2,2.4c1.2-0.6,2.5-1.1,3.9-1.1c2.6,0,3.5,1.6,3.5,3.3v0.4
	c-1.3-0.5-2.7-0.8-4-0.8c-3.2,0-5.9,2-5.9,4.8c0,2.8,2.3,4.6,5.4,4.6C40.4,47.6,42.2,46.8,43.3,45.5z M50.6,64.9l-0.7-0.7
	c-0.4,0.4-0.8,0.7-1.3,0.9c-1,0.3-1.5-0.2-1.7-0.8l0-0.1c0.6,0,1.1,0,1.6-0.2c1.2-0.4,2-1.5,1.6-2.5c-0.3-1-1.4-1.4-2.6-1.1
	c-0.6,0.2-1.2,0.7-1.4,1.3l-0.2-0.6l-1.2,0.4l1.1,3.2c0.4,1.4,1.6,2,3.1,1.5C49.3,66,49.9,65.6,50.6,64.9z M56.3,58.7
	c-0.9-1.3-2.8-1.6-4.2-0.7c-0.7,0.5-1.1,1.3-1.2,2l1.2,0.1c0.1-0.5,0.3-0.9,0.7-1.2c0.8-0.5,1.9-0.3,2.4,0.5
	c0.6,0.8,0.4,1.9-0.3,2.5c-0.4,0.3-0.9,0.4-1.4,0.3l-0.3,1.2c0.8,0.1,1.6,0,2.3-0.5C56.8,61.9,57.2,60,56.3,58.7z M59.9,58.9l0.9-1
	l-4.2-3.8l-0.9,1L59.9,58.9z M62.1,59c-0.3-0.3-0.8-0.3-1.1,0.1c-0.3,0.3-0.2,0.8,0.1,1.1c0.3,0.3,0.8,0.3,1.1-0.1
	C62.4,59.7,62.4,59.2,62.1,59z M65,55.6l-6.4-4.2l-0.7,1.1l6.4,4.2L65,55.6z M68.7,47.1l-7.2-2.5l-0.4,1.3l0.8,0.3
	c-0.8,0.2-1.3,0.7-1.6,1.5c-0.5,1.4,0.3,2.9,1.9,3.4c1.6,0.6,3.2-0.1,3.6-1.5c0.3-0.8,0.1-1.6-0.3-2.2l2.7,1L68.7,47.1z M69.5,41.8
	l0.3-1.2l-1.6-1.3l0,0.9L69.5,41.8z M43.3,41.1c-1.1-0.4-2.3-0.6-3.5-0.6c-1.7,0-3.1,0.9-3.1,2.3c0,1.4,1.2,2.2,2.8,2.2
	c1.6,0,3.4-0.8,3.8-2.4V41.1z M30.3,65.7l2.4-2.5l-2.5-0.9L30.3,65.7z"/>
</svg>
