<?xml version="1.0" encoding="utf-8"?>
<!-- Generator: Adobe Illustrator 25.4.1, SVG Export Plug-In . SVG Version: 6.00 Build 0)  -->
<svg version="1.1" id="Capa_1" xmlns="http://www.w3.org/2000/svg" xmlns:xlink="http://www.w3.org/1999/xlink" x="0px" y="0px"
	 viewBox="0 0 292.2 148.1" style="enable-background:new 0 0 292.2 148.1;" xml:space="preserve">
<style type="text/css">
	.aoc{fill-rule:evenodd;clip-rule:evenodd;}
</style>
<path class="aoc" d="M87.4,54.7c-5.6,0-14.2-3.7-14.2-19.5c0-15.9,8.6-19.5,14.2-19.5c5.6,0,14.2,3.7,14.2,19.5
	C101.6,51.1,93,54.7,87.4,54.7z"/>
<path class="aoc" d="M32.4,40.9h-7.1l3.7-11.5L32.4,40.9z M0,0h74.5C60.2,4.9,51.3,18.2,51.3,35.2c0,17.3,9.2,30.7,23.9,35.4H0V0z
	 M23.4,16.8L9.6,54.2h11.6l1.7-5.3h11.9l1.6,5.3h11.9L34.6,16.8H23.4z"/>
<path class="aoc" d="M100.4,0c14.3,4.9,23.2,18.2,23.2,35.2c0,17.3-9.2,30.7-23.9,35.4h77V0H100.4z M148.9,55.1
	c-12.1,0-19-8.5-19-19.6c0-11.8,7.4-19.6,19-19.6c10.3,0.1,15.9,5.4,16.9,14.8h-11.2c-0.2-1.4-1.3-5.5-6-5.5
	c-5.4,0-7.1,5.2-7.1,10.3c0,5,1.7,10.3,7.1,10.3c3.9,0,5.4-2.7,6.1-6.2H166C166,47.1,159.8,55.1,148.9,55.1z"/>
<path class="aoc" d="M86.8,91.4c-0.4-3.5-3.2-5.4-6.5-5.4c-4.7,0-7.4,3.5-7.4,8c0,4.4,2.8,7.8,7.4,7.8c3.7,0,6.3-2.4,6.6-6.2h-3.2
	c-0.3,2-1.4,3.4-3.4,3.4c-3,0-4.1-2.5-4.1-5.1c0-2.6,1.1-5.2,4.1-5.2c1.7,0,3.1,1.1,3.3,2.6H86.8z"/>
<path class="aoc" d="M91.9,96c0-1.8,0.6-3.5,2.6-3.5c2.1,0,2.7,1.8,2.7,3.5c0,1.7-0.6,3.5-2.7,3.5C92.5,99.5,91.9,97.7,91.9,96z
	 M88.9,96c0,3.5,2.2,5.8,5.6,5.8c3.4,0,5.7-2.3,5.7-5.8c0-3.5-2.2-5.8-5.7-5.8C91.1,90.2,88.9,92.5,88.9,96z"/>
<path class="aoc" d="M102.5,101.5h3v-5.7c0-2.2,0.7-3.1,2.3-3.1c1.4,0,1.9,0.9,1.9,2.7v6.2h3v-6.7c0-2.7-0.8-4.5-4-4.5
	c-1.3,0-2.6,0.6-3.3,1.8h-0.1v-1.5h-2.9V101.5z"/>
<path class="aoc" d="M114.8,97.9c0.1,2.9,2.6,3.9,5.1,3.9c2.5,0,5-0.9,5-3.8c0-2-1.7-2.7-3.5-3.1c-1.7-0.4-3.4-0.6-3.4-1.6
	c0-0.9,1-1,1.7-1c1.1,0,2,0.3,2.1,1.5h2.9c-0.2-2.7-2.4-3.5-4.8-3.5c-2.3,0-4.8,0.7-4.8,3.5c0,1.9,1.7,2.5,3.5,2.9
	c2.2,0.5,3.4,0.8,3.4,1.7c0,1.1-1.1,1.4-2,1.4c-1.2,0-2.3-0.5-2.3-1.8H114.8z"/>
<path class="aoc" d="M129.7,96c0-1.8,0.6-3.5,2.6-3.5c2.1,0,2.7,1.8,2.7,3.5c0,1.7-0.6,3.5-2.7,3.5C130.3,99.5,129.7,97.7,129.7,96z
	 M126.7,96c0,3.5,2.2,5.8,5.6,5.8c3.4,0,5.7-2.3,5.7-5.8c0-3.5-2.2-5.8-5.7-5.8C128.9,90.2,126.7,92.5,126.7,96z"/>
<path class="aoc" d="M140.2,101.5h3v-4.9c0-1.9,0.8-3.5,3-3.5c0.4,0,0.8,0,1.1,0.1v-2.8c-0.2-0.1-0.4-0.1-0.7-0.1
	c-1.5,0-2.9,1-3.5,2.3h0v-2h-2.9V101.5z"/>
<path class="aoc" d="M158.8,94.4c-0.2-2.8-2.6-4.1-5.1-4.1c-3.6,0-5.6,2.5-5.6,5.9c0,3.3,2.2,5.6,5.5,5.6c2.9,0,4.9-1.6,5.3-4.5
	h-2.9c-0.2,1.3-1,2.2-2.4,2.2c-1.9,0-2.5-1.9-2.5-3.4c0-1.6,0.6-3.6,2.6-3.6c1.2,0,2,0.7,2.2,1.9H158.8z"/>
<path class="aoc" d="M163.9,86.4h-3v2.5h3V86.4z M160.9,101.5h3V90.5h-3V101.5z"/>
<path class="aoc" d="M79.3,111.5L79.3,111.5l1.9,5.5h-3.9L79.3,111.5z M71.9,122.9h3.4l1.2-3.4h5.6l1.1,3.4h3.4l-5.6-15.1h-3.4
	L71.9,122.9z"/>
<path class="aoc" d="M95.8,117.4c0,1.8-0.6,3.5-2.6,3.5c-1.9,0-2.6-1.8-2.6-3.5c0-1.8,0.7-3.5,2.6-3.5
	C95.2,113.9,95.8,115.6,95.8,117.4z M95.8,122.9h2.9v-15.1h-3v5.5h0h0c-0.7-1.1-2-1.6-3.3-1.6c-3.2,0-4.8,2.7-4.8,5.7
	c0,3,1.6,5.9,4.9,5.9c1.4,0,2.6-0.5,3.3-1.7h0V122.9z"/>
<path class="aoc" d="M101.4,122.9h3v-6.3c0-2.1,1.4-2.5,2-2.5c1.9,0,1.8,1.5,1.8,2.7v6.1h3v-6.1c0-1.4,0.3-2.8,2-2.8
	c1.7,0,1.8,1.2,1.8,2.7v6.2h3v-7.3c0-2.8-1.7-3.9-4-3.9c-1.5,0-2.7,0.9-3.3,1.8c-0.6-1.3-1.8-1.8-3.2-1.8c-1.4,0-2.6,0.7-3.3,1.8h0
	v-1.5h-2.8V122.9z"/>
<path class="aoc" d="M123.8,107.8h-3v2.5h3V107.8z M120.8,122.9h3v-10.9h-3V122.9z"/>
<path class="aoc" d="M126.5,122.9h3v-5.7c0-2.2,0.7-3.1,2.3-3.1c1.4,0,1.9,0.9,1.9,2.7v6.2h3v-6.7c0-2.7-0.8-4.5-4-4.5
	c-1.3,0-2.6,0.6-3.3,1.8h-0.1v-1.5h-2.9V122.9z"/>
<path class="aoc" d="M142.5,107.8h-3v2.5h3V107.8z M139.5,122.9h3v-10.9h-3V122.9z"/>
<path class="aoc" d="M144.6,119.3c0.1,2.9,2.6,3.9,5.1,3.9c2.5,0,5-0.9,5-3.8c0-2-1.7-2.7-3.5-3.1c-1.7-0.4-3.4-0.6-3.4-1.6
	c0-0.9,1-1,1.7-1c1.1,0,2,0.3,2.1,1.5h2.9c-0.2-2.7-2.4-3.5-4.8-3.5c-2.3,0-4.8,0.7-4.8,3.5c0,1.9,1.7,2.5,3.5,2.9
	c2.2,0.5,3.4,0.8,3.4,1.7c0,1.1-1.1,1.4-2,1.4c-1.2,0-2.3-0.5-2.3-1.8H144.6z"/>
<path class="aoc" d="M160.6,108.7h-3v3.3h-1.8v2h1.8v6.5c0,2.2,1.6,2.6,3.4,2.6c0.6,0,1.2,0,1.8-0.1v-2.3c-0.3,0.1-0.6,0.1-0.9,0.1
	c-1,0-1.3-0.3-1.3-1.3v-5.4h2.2v-2h-2.2V108.7z"/>
<path class="aoc" d="M164.6,122.9h3v-4.9c0-1.9,0.8-3.5,3-3.5c0.4,0,0.8,0,1.1,0.1v-2.8c-0.2-0.1-0.4-0.1-0.7-0.1
	c-1.5,0-2.9,1-3.5,2.3h0v-2h-2.9V122.9z"/>
<path class="aoc" d="M176,115.3c0.1-1.2,0.8-1.7,2-1.7c1.1,0,1.9,0.2,1.9,1.5c0,1.2-1.7,1.2-3.6,1.4c-1.9,0.3-3.7,0.8-3.7,3.3
	c0,2.2,1.7,3.3,3.7,3.3c1.3,0,2.7-0.4,3.7-1.4c0,0.4,0.1,0.7,0.2,1.1h3c-0.3-0.4-0.4-1.4-0.4-2.4v-5.7c0-2.6-2.6-3.1-4.8-3.1
	c-2.5,0-5,0.8-5.1,3.7H176z M179.9,118.6c0,0.7-0.1,2.5-2.4,2.5c-1,0-1.8-0.3-1.8-1.4c0-1.1,0.8-1.4,1.8-1.6c0.9-0.2,2-0.2,2.5-0.6
	V118.6z"/>
<path class="aoc" d="M196,115.8c-0.2-2.8-2.6-4.1-5.1-4.1c-3.6,0-5.6,2.5-5.6,5.9c0,3.3,2.2,5.6,5.5,5.6c2.9,0,4.9-1.6,5.3-4.5h-2.9
	c-0.2,1.3-1,2.2-2.4,2.2c-1.9,0-2.5-1.9-2.5-3.4c0-1.6,0.6-3.6,2.6-3.6c1.2,0,2,0.7,2.2,1.9H196z"/>
<path class="aoc" d="M201.1,107.8h-3v2.5h3V107.8z M198.1,122.9h3v-10.9h-3V122.9z"/>
<path class="aoc" d="M206.5,117.4c0-1.8,0.6-3.5,2.6-3.5c2.1,0,2.7,1.8,2.7,3.5c0,1.7-0.6,3.5-2.7,3.5
	C207.1,120.9,206.5,119.1,206.5,117.4z M203.5,117.4c0,3.5,2.2,5.8,5.6,5.8c3.4,0,5.7-2.3,5.7-5.8c0-3.5-2.2-5.8-5.7-5.8
	C205.7,111.6,203.5,113.9,203.5,117.4z M212.9,107.6h-3.3l-2,3h2.1L212.9,107.6z"/>
<path class="aoc" d="M226.2,115.4c0-2.6,1.1-5.2,4.1-5.2c3,0,4.1,2.5,4.1,5.2c0,2.5-1.1,5.1-4.1,5.1
	C227.3,120.4,226.2,117.9,226.2,115.4z M222.9,115.4c0,4.4,2.8,7.8,7.4,7.8c4.7,0,7.4-3.5,7.4-7.8c0-4.5-2.8-8-7.4-8
	C225.7,107.4,222.9,110.9,222.9,115.4z"/>
<path class="aoc" d="M248,117.4c0,1.8-0.8,3.5-2.6,3.5c-1.8,0-2.6-1.7-2.6-3.5c0-1.8,0.8-3.5,2.6-3.5
	C247.2,113.9,248,115.6,248,117.4z M240,122.9h2.9v-1.4h0c0.7,1.2,2,1.7,3.6,1.7c2.2,0,4.5-1.8,4.5-5.8c0-4-2.3-5.8-4.5-5.8
	c-1.4,0-2.7,0.5-3.4,1.6h0v-5.5h-3V122.9z"/>
<path class="aoc" d="M255.7,116.2c0-0.8,0.6-2.3,2.5-2.3c1.5,0,2.1,0.8,2.4,2.3H255.7z M263.6,118.1c0.2-3.4-1.6-6.5-5.3-6.5
	c-3.3,0-5.6,2.5-5.6,5.8c0,3.4,2.1,5.8,5.6,5.8c2.5,0,4.3-1.1,5.1-3.7h-2.6c-0.2,0.7-1.2,1.4-2.4,1.4c-1.7,0-2.6-0.9-2.7-2.8H263.6z
	"/>
<path class="aoc" d="M265.7,122.9h3v-4.9c0-1.9,0.8-3.5,3-3.5c0.4,0,0.8,0,1.1,0.1v-2.8c-0.2-0.1-0.4-0.1-0.7-0.1
	c-1.5,0-2.9,1-3.5,2.3h0v-2h-2.9V122.9z"/>
<path class="aoc" d="M278.1,108.7h-3v3.3h-1.8v2h1.8v6.5c0,2.2,1.6,2.6,3.4,2.6c0.6,0,1.2,0,1.8-0.1v-2.3c-0.3,0.1-0.6,0.1-0.9,0.1
	c-1,0-1.3-0.3-1.3-1.3v-5.4h2.2v-2h-2.2V108.7z"/>
<path class="aoc" d="M284.9,115.3c0.1-1.2,0.8-1.7,2-1.7c1.1,0,1.9,0.2,1.9,1.5c0,1.2-1.7,1.2-3.6,1.4c-1.9,0.3-3.7,0.8-3.7,3.3
	c0,2.2,1.7,3.3,3.7,3.3c1.3,0,2.7-0.4,3.7-1.4c0,0.4,0.1,0.7,0.2,1.1h3c-0.3-0.4-0.4-1.4-0.4-2.4v-5.7c0-2.6-2.6-3.1-4.8-3.1
	c-2.5,0-5,0.8-5.1,3.7H284.9z M288.8,118.6c0,0.7-0.1,2.5-2.4,2.5c-1,0-1.8-0.3-1.8-1.4c0-1.1,0.8-1.4,1.8-1.6
	c0.9-0.2,2-0.2,2.5-0.6V118.6z"/>
<path class="aoc" d="M81,138.8c0,1.8-0.6,3.5-2.6,3.5c-1.9,0-2.6-1.8-2.6-3.5c0-1.8,0.7-3.5,2.6-3.5C80.4,135.3,81,137,81,138.8z
	 M81,144.3h2.9v-15.1h-3v5.5h0h0c-0.7-1.1-2-1.6-3.3-1.6c-3.2,0-4.8,2.7-4.8,5.7c0,3,1.6,5.9,4.9,5.9c1.4,0,2.6-0.5,3.3-1.7h0V144.3
	z"/>
<path class="aoc" d="M88.9,137.6c0-0.8,0.6-2.3,2.5-2.3c1.5,0,2.1,0.8,2.4,2.3H88.9z M96.8,139.5c0.2-3.4-1.6-6.5-5.3-6.5
	c-3.3,0-5.6,2.5-5.6,5.8c0,3.4,2.1,5.8,5.6,5.8c2.5,0,4.3-1.1,5.1-3.7H94c-0.2,0.7-1.2,1.4-2.4,1.4c-1.7,0-2.6-0.9-2.7-2.8H96.8z"/>
<path class="aoc" d="M118.7,134.3c-0.4-3.5-3.2-5.4-6.5-5.4c-4.7,0-7.4,3.5-7.4,8c0,4.4,2.8,7.8,7.4,7.8c3.7,0,6.3-2.4,6.6-6.2h-3.2
	c-0.3,2-1.4,3.4-3.4,3.4c-3,0-4.1-2.5-4.1-5.1c0-2.6,1.1-5.2,4.1-5.2c1.7,0,3.1,1.1,3.3,2.6H118.7z"/>
<path class="aoc" d="M124,136.7c0.1-1.2,0.8-1.7,2-1.7c1.1,0,1.9,0.2,1.9,1.5c0,1.2-1.7,1.2-3.6,1.4c-1.9,0.3-3.7,0.8-3.7,3.3
	c0,2.2,1.7,3.3,3.7,3.3c1.3,0,2.7-0.4,3.7-1.4c0,0.4,0.1,0.7,0.2,1.1h3c-0.3-0.4-0.4-1.4-0.4-2.4v-5.7c0-2.6-2.6-3.1-4.8-3.1
	c-2.5,0-5,0.8-5.1,3.7H124z M127.9,140c0,0.7-0.1,2.5-2.4,2.5c-1,0-1.8-0.3-1.8-1.4c0-1.1,0.8-1.4,1.8-1.6c0.9-0.2,2-0.2,2.5-0.6
	V140z"/>
<path class="aoc" d="M137.4,130.1h-3v3.3h-1.8v2h1.8v6.5c0,2.2,1.6,2.6,3.4,2.6c0.6,0,1.2,0,1.8-0.1V142c-0.3,0.1-0.6,0.1-0.9,0.1
	c-1,0-1.3-0.3-1.3-1.3v-5.4h2.2v-2h-2.2V130.1z"/>
<path class="aoc" d="M144.2,136.7c0.1-1.2,0.8-1.7,2-1.7c1.1,0,1.9,0.2,1.9,1.5c0,1.2-1.7,1.2-3.6,1.4c-1.9,0.3-3.7,0.8-3.7,3.3
	c0,2.2,1.7,3.3,3.7,3.3c1.3,0,2.7-0.4,3.7-1.4c0,0.4,0.1,0.7,0.2,1.1h3c-0.3-0.4-0.4-1.4-0.4-2.4v-5.7c0-2.6-2.6-3.1-4.8-3.1
	c-2.5,0-5,0.8-5.1,3.7H144.2z M148.1,140c0,0.7-0.1,2.5-2.4,2.5c-1,0-1.8-0.3-1.8-1.4c0-1.1,0.8-1.4,1.8-1.6c0.9-0.2,2-0.2,2.5-0.6
	V140z"/>
<rect x="153.9" y="129.2" class="aoc" width="3" height="15.1"/>
<path class="aoc" d="M169.8,133.3h-3v5.7c0,2.2-0.7,3.1-2.3,3.1c-1.4,0-1.9-0.9-1.9-2.7v-6.2h-3v6.7c0,2.7,0.8,4.5,4,4.5
	c1.3,0,2.6-0.6,3.3-1.8h0.1v1.5h2.9V133.3z"/>
<path class="aoc" d="M172.4,144.3h3v-5.7c0-2.2,0.7-3.1,2.3-3.1c1.4,0,1.9,0.9,1.9,2.7v6.2h3v-6.7c0-2.7-0.8-4.5-4-4.5
	c-1.3,0-2.6,0.6-3.3,1.8h-0.1v-1.5h-2.9V144.3z"/>
<path class="aoc" d="M195.2,133.3h-3.1l-2.4,7.5h0l-2.5-7.5H184l3.9,10.3c0.3,0.9,0,1.9-1,2.1c-0.6,0-1.2-0.1-1.8-0.1v2.5
	c0.6,0.1,1.2,0.1,1.8,0.1c2.1,0,3.1-0.7,3.8-2.5L195.2,133.3z"/>
<path class="aoc" d="M199.4,136.7c0.1-1.2,0.8-1.7,2-1.7c1.1,0,1.9,0.2,1.9,1.5c0,1.2-1.7,1.2-3.6,1.4c-1.9,0.3-3.7,0.8-3.7,3.3
	c0,2.2,1.7,3.3,3.7,3.3c1.3,0,2.7-0.4,3.7-1.4c0,0.4,0.1,0.7,0.2,1.1h3c-0.3-0.4-0.4-1.4-0.4-2.4v-5.7c0-2.6-2.6-3.1-4.8-3.1
	c-2.5,0-5,0.8-5.1,3.7H199.4z M203.4,140c0,0.7-0.1,2.5-2.4,2.5c-1,0-1.8-0.3-1.8-1.4c0-1.1,0.8-1.4,1.8-1.6c0.9-0.2,2-0.2,2.5-0.6
	V140z"/>
</svg>
