<svg viewBox="0 0 1024 1024" width="1024" height="1024" xmlns="http://www.w3.org/2000/svg" version="1.1">
 <title/>

 <g>
  <title>Layer 1</title>
  <g id="icomoon-ignore"/>
  <path d="m397.25007,660.61799l0,79.79864l505.82069,0c21.54646,0 39.01275,-17.46994 39.01275,-39.20733l0,-505.33423c0,-21.65348 -17.10266,-39.20733 -39.01275,-39.20733l-778.14133,0c-21.54646,0 -39.01275,17.46994 -39.01275,39.20733l0,505.33423c0,21.65348 17.10266,39.20733 39.01275,39.20733l77.73727,0l0,-79.79864c-24.07361,-24.56737 -38.91667,-58.21326 -38.91667,-95.32639c0,-75.22593 60.98243,-136.20836 136.20836,-136.20836s136.20836,60.98243 136.20836,136.20836c0,37.11313 -14.84306,70.75903 -38.91667,95.32639l0,0l0,0zm-155.6667,27.77434l0,153.20643l58.37501,-58.37379l58.37501,58.37379l0,-153.20643c-17.69249,8.40479 -37.48405,13.10762 -58.37501,13.10762s-40.68252,-4.70284 -58.37501,-13.10762l0,0l0,0zm-38.91667,90.94097l-77.6412,0c-43.11603,0 -78.0255,-34.84867 -78.0255,-77.837l0,-505.90825c0,-43.19994 34.9338,-77.837 78.0255,-77.837l777.94796,0c43.11603,0 78.0255,34.84867 78.0255,77.837l0,505.90825c0,43.19994 -34.9338,77.837 -78.0255,77.837l-505.72461,0l0,155.6667l-97.29169,-97.29169l-97.29169,97.29169l0,-155.6667l0.00122,0zm-38.91667,-467.00009l0,38.91667l700.50013,0l0,-38.91667l-700.50013,0zm350.25007,116.75002l0,38.91667l350.25007,0l0,-38.91667l-350.25007,0zm116.75002,116.75002l0,38.91667l233.50004,0l0,-38.91667l-233.50004,0zm-330.79173,116.75002c53.73298,0 97.29169,-43.5587 97.29169,-97.29169s-43.5587,-97.29169 -97.29169,-97.29169c-53.73298,0 -97.29169,43.5587 -97.29169,97.29169s43.5587,97.29169 97.29169,97.29169l0,0z"/>
 </g>
</svg>