<?xml version="1.0" encoding="utf-8"?>
<!-- Generator: Adobe Illustrator 25.4.1, SVG Export Plug-In . SVG Version: 6.00 Build 0)  -->
<svg version="1.1" baseProfile="tiny" id="Capa_1" xmlns="http://www.w3.org/2000/svg" xmlns:xlink="http://www.w3.org/1999/xlink"
	 x="0px" y="0px" viewBox="0 0 24 24" overflow="visible" xml:space="preserve">
<g id="Capa_1_00000176746188894601178730000010831967733685402800_">
</g>
<g>
	<g id="Capa_2_00000138549394026958550490000007381468274285685142_">
		<path fill-opacity="25%" d="M13.1,23H6.9c-2.2,0-4-1.8-4-4V5c0-2.2,1.8-4,4-4H13c2.2,0,4,1.8,4,4v6.2l3.3,0.7v3.6l-3.3,1V19
			C17.1,21.2,15.3,23,13.1,23z"/>
		<g>
			<polygon fill="none" points="15,13 13.7,13.4 13.8,12 13,12 13,13.4 11.7,13 11.5,13.8 12.8,14.1 11.9,15.2 12.6,15.7 13.4,14.6 
				14.1,15.7 14.8,15.2 14,14.1 15.2,13.8 			"/>
			<polygon fill="none" points="10.2,13 8.9,13.4 9,12 8.2,12 8.2,13.4 6.9,13 6.7,13.8 7.9,14.1 7.1,15.2 7.8,15.7 8.6,14.6 
				9.3,15.7 10,15.2 9.1,14.1 10.4,13.8 			"/>
			<path d="M18.1,9.7H8.3c-1.7,0-3,1.3-3,3v7l1.3-1.5c0.3-0.3,0.7-0.5,1.1-0.5H18c1.7,0,3-1.3,3-3v-2C21.1,11,19.7,9.7,18.1,9.7z
				 M10,15.2l-0.7,0.5l-0.7-1.1l-0.8,1.1l-0.6-0.5L8,14.1l-1.3-0.3L7,13l1.2,0.4V12H9v1.4l1.2-0.4l0.3,0.8l-1.3,0.4L10,15.2z
				 M14.8,15.2l-0.7,0.5l-0.8-1.1l-0.7,1.1L12,15.2l0.8-1.1l-1.3-0.4l0.3-0.8l1.2,0.5V12h0.8v1.4L15,13l0.3,0.8L14,14.1L14.8,15.2z
				 M19.6,15.2L19,15.7l-0.8-1.1l-0.8,1.1l-0.6-0.5l0.8-1.1l-1.3-0.4l0.3-0.8l1.2,0.4v-1.4h0.8v1.4l1.2-0.4l0.2,0.9l-1.3,0.4
				L19.6,15.2z"/>
		</g>
	</g>
	<path d="M11.2,21H8.9c-0.4,0-0.7-0.3-0.7-0.7l0,0c0-0.4,0.3-0.7,0.7-0.7h2.2c0.4,0,0.7,0.3,0.7,0.7l0,0C11.9,20.7,11.6,21,11.2,21z
		"/>
	<polygon points="7.2,7.9 6.6,8.3 6,7.4 5.4,8.3 4.9,7.9 5.5,7 4.4,6.7 4.7,6.1 5.7,6.4 5.7,5.2 6.4,5.2 6.4,6.4 7.4,6.1 7.6,6.7 
		6.5,7.1 	"/>
	<polygon points="11.3,7.9 10.7,8.3 10,7.4 9.5,8.3 9,7.9 9.6,7 8.5,6.6 8.8,6 9.8,6.4 9.8,5.2 10.5,5.2 10.5,6.4 11.5,6.1 
		11.7,6.7 10.6,7 	"/>
	<polygon points="15.4,7.9 14.9,8.3 14.2,7.4 13.6,8.3 13.1,7.9 13.7,7 12.6,6.6 12.9,6 13.9,6.3 13.9,5.1 14.6,5.1 14.6,6.3 
		15.6,6 15.7,6.7 14.6,7.1 	"/>
</g>
</svg>
