<?xml version="1.0" encoding="utf-8"?>
<!-- Generator: Adobe Illustrator 25.4.1, SVG Export Plug-In . SVG Version: 6.00 Build 0)  -->
<svg version="1.1" baseProfile="tiny" id="Capa_1" xmlns="http://www.w3.org/2000/svg" xmlns:xlink="http://www.w3.org/1999/xlink"
	 x="0px" y="0px" viewBox="0 0 24 24" overflow="visible" xml:space="preserve">
<g id="Capa_1_00000032649376683239505260000015394599544453752493_">
</g>
<g id="Capa_2_00000124843580517410255290000001199230600576283803_">
	<path fill-opacity="25%" d="M13.1,23H6.9c-2.2,0-4-1.8-4-4V5c0-2.2,1.8-4,4-4H13c2.2,0,4,1.8,4,4v1.7l3.3,0.7V11L17,12v7
		C17.1,21.2,15.3,23,13.1,23z"/>
	<path d="M11.2,21H8.9c-0.4,0-0.7-0.3-0.7-0.7l0,0c0-0.4,0.3-0.7,0.7-0.7h2.2c0.4,0,0.7,0.3,0.7,0.7l0,0C11.9,20.7,11.6,21,11.2,21z
		"/>
	<g>
		<polygon fill="none" points="14,8.3 12.7,8.7 12.8,7.3 12,7.3 12,8.7 10.7,8.3 10.5,9.1 11.8,9.4 10.9,10.5 11.6,11 12.4,9.9 
			13.1,11 13.8,10.5 13,9.4 14.2,9.1 		"/>
		<polygon fill="none" points="9.2,8.3 7.9,8.7 8,7.3 7.2,7.3 7.2,8.7 5.9,8.3 5.7,9.1 6.9,9.4 6.1,10.5 6.8,11 7.6,9.9 8.3,11 
			9,10.5 8.1,9.4 9.4,9.1 		"/>
		<path d="M18.1,5H8.3c-1.7,0-3,1.3-3,3v7l1.3-1.5C6.9,13.2,7.3,13,7.7,13H18c1.7,0,3-1.3,3-3V8C21.1,6.3,19.7,5,18.1,5z M10,10.5
			L9.3,11L8.6,9.9L7.8,11l-0.6-0.5L8,9.4L6.7,9.1L7,8.3l1.2,0.4V7.3H9v1.4l1.2-0.4l0.3,0.8L9.2,9.5L10,10.5z M14.8,10.5L14.1,11
			l-0.8-1.1L12.6,11L12,10.5l0.8-1.1L11.5,9l0.3-0.8L13,8.7V7.3h0.8v1.4L15,8.3l0.3,0.8L14,9.4L14.8,10.5z M19.6,10.5L19,11
			l-0.8-1.1L17.4,11l-0.6-0.5l0.8-1.1L16.3,9l0.3-0.8l1.2,0.4V7.2h0.8v1.4l1.2-0.4L20,9.1l-1.3,0.4L19.6,10.5z"/>
	</g>
</g>
</svg>
