<?xml version="1.0" encoding="UTF-8"?>
<svg width="752pt" height="752pt" version="1.1" viewBox="0 0 752 752" xmlns="http://www.w3.org/2000/svg">
 <g>
  <path d="m391.2 418.62c23.672-15.754 39.398-40.953 43.145-69.137 3.7461-28.188-4.8516-56.621-23.586-78.008-18.73-21.391-45.785-33.656-74.219-33.656s-55.484 12.266-74.219 33.656c-18.734 21.387-27.328 49.82-23.582 78.008 3.7461 28.184 19.473 53.383 43.145 69.137-23.73 5.6289-44.871 19.09-60.016 38.207-15.141 19.117-23.406 42.777-23.453 67.164 0 2.6172 1.0391 5.125 2.8867 6.9766 1.8516 1.8477 4.3594 2.8906 6.9766 2.8906h256.52c2.6172 0 5.1289-1.043 6.9766-2.8906 1.8516-1.8516 2.8906-4.3594 2.8906-6.9766-0.050781-24.387-8.3125-48.047-23.457-67.164-15.141-19.117-36.281-32.578-60.012-38.207zm-133.59-82.09c0-20.934 8.3164-41.008 23.117-55.812 14.805-14.801 34.879-23.117 55.812-23.117s41.012 8.3164 55.812 23.117c14.805 14.805 23.117 34.879 23.117 55.812s-8.3125 41.012-23.117 55.812c-14.801 14.805-34.879 23.117-55.812 23.117s-41.008-8.3125-55.812-23.117c-14.801-14.801-23.117-34.879-23.117-55.812zm-39.465 177.59c2.4375-21.801 12.859-41.93 29.254-56.504s37.605-22.562 59.543-22.426h59.199c21.934-0.13672 43.145 7.8516 59.543 22.426 16.395 14.574 26.816 34.703 29.25 56.504z"/>
  <path d="m556.16 336.54c-3.0742-5.8906-7.6875-10.84-13.352-14.316-5.6641-3.4727-12.168-5.3477-18.812-5.4141-10.668-0.70703-21.121 3.2227-28.68 10.785-7.5625 7.5586-11.492 18.012-10.785 28.68 0 5.4492 4.418 9.8672 9.8672 9.8672 5.4453 0 9.8633-4.418 9.8633-9.8672-0.80859-5.4414 1.0078-10.945 4.8984-14.836s9.3945-5.707 14.836-4.8984c3.0312 0.042969 5.9961 0.88672 8.5977 2.4453 2.5977 1.5586 4.7383 3.7812 6.1992 6.4336 1.7734 4.1211 2.3984 8.6484 1.8047 13.094-0.58984 4.4453-2.3711 8.6484-5.1562 12.164-2.7617 4.1445-5.3281 7.5-7.6953 10.457v0.003906c-9.0391 9.1055-13.957 21.508-13.617 34.332 0 5.4492 4.418 9.8672 9.8672 9.8672 5.4492 0 9.8672-4.418 9.8672-9.8672-0.16797-8.3047 3.1211-16.309 9.0742-22.098 3.3398-3.7656 6.375-7.793 9.0781-12.039 4.6562-6.4023 7.5-13.941 8.2266-21.824 0.73047-7.8867-0.67969-15.82-4.082-22.969z"/>
  <path d="m533.86 454.93c0 5.4492-4.418 9.8672-9.8672 9.8672-5.4492 0-9.8672-4.418-9.8672-9.8672 0-5.4453 4.418-9.8633 9.8672-9.8633 5.4492 0 9.8672 4.418 9.8672 9.8633"/>
 </g>
</svg>