<?xml version="1.0" encoding="UTF-8"?>
<svg width="752" height="752" viewBox="0 0 752 752" xmlns="http://www.w3.org/2000/svg" version="1.1">
  <g>
   <path d="m401.63967,430.91616c47.66997,-31.84507 79.33851,-82.78223 86.88411,-139.75325c7.54378,-56.97911 -9.77001,-114.45346 -47.49678,-157.68505c-37.71791,-43.23968 -92.20046,-68.0321 -149.46,-68.0321s-111.73202,24.79444 -149.46,68.0321c-37.72597,43.23159 -55.03231,100.70594 -47.48873,157.68505c7.54378,56.97102 39.21414,107.90818 86.88411,139.75325c-47.78676,11.37824 -90.35988,38.58845 -120.85842,77.23147c-30.49049,38.64303 -47.1343,86.46925 -47.22895,135.76503c0,5.2904 2.09251,10.35965 5.81315,14.10247c3.7287,3.73493 8.77883,5.84305 14.04927,5.84305l516.5723,0c5.27044,0 10.32843,-2.10832 14.04927,-5.84305c3.7287,-3.74282 5.821,-8.81207 5.821,-14.10247c-0.10226,-49.29578 -16.73946,-97.12201 -47.237,-135.76503c-30.49049,-38.64303 -73.06159,-65.85304 -120.85037,-77.23147l0.00705,0zm-269.01954,-165.93639c0,-42.3159 16.74732,-82.8934 46.55232,-112.81815c29.81387,-29.91868 70.23829,-46.72861 112.39254,-46.72861s82.58874,16.81074 112.39254,46.72861c29.81387,29.92677 46.55232,70.50427 46.55232,112.81815s-16.73946,82.90149 -46.55232,112.81815c-29.80581,29.92677 -70.23829,46.72861 -112.39254,46.72861s-82.58068,-16.80285 -112.39254,-46.72861c-29.80581,-29.91868 -46.55232,-70.50427 -46.55232,-112.81815zm-79.47344,358.9797c4.90856,-44.06845 25.89507,-84.75713 58.91083,-114.21695s75.72782,-45.60673 119.90591,-45.33182l119.21317,0c44.17003,-0.27637 86.88411,15.87119 119.90591,45.33182c33.01576,29.45982 54.00126,70.1485 58.90277,114.21695l-476.8386,0z"/>
   <path d="m733.83118,264.99998c-6.19073,-11.90723 -15.48086,-21.91193 -26.88786,-28.9383c-11.4062,-7.0197 -24.50355,-10.80982 -37.88304,-10.94404c-21.4829,-1.42919 -42.53284,6.51435 -57.75493,21.80075c-15.22914,15.27892 -23.14225,36.40938 -21.71851,57.97363c0,11.01499 8.89684,19.94552 19.87027,19.94552c10.96558,0 19.86242,-8.93053 19.86242,-19.94552c-1.62831,-10.99922 2.02948,-22.12418 9.86425,-29.98943s18.91836,-11.53611 29.87629,-9.90161c6.10414,0.08686 12.07477,1.79241 17.31379,4.94292c5.23117,3.15055 9.54185,7.6433 12.48376,13.00485c3.57122,8.33037 4.82983,17.48184 3.63425,26.46816c-1.1878,8.98571 -4.77485,17.48184 -10.3834,24.58826c-5.56143,8.37768 -10.72957,15.16047 -15.49656,21.13774l0,0.0079c-18.20267,18.40582 -28.10619,43.47618 -27.42151,69.39856c0,11.01499 8.89684,19.94552 19.87027,19.94552c10.97344,0 19.87027,-8.93053 19.87027,-19.94552c-0.33825,-16.78709 6.28518,-32.96695 18.27335,-44.66881c6.72559,-7.61177 12.83778,-15.75274 18.28121,-24.33559c9.37652,-12.94158 15.10328,-28.18028 16.56648,-44.11494c1.471,-15.94214 -1.36874,-31.97848 -8.22021,-46.42944l-0.0006,-0.00063z"/>
   <path d="m688.92411,504.31304c0,11.01499 -8.89684,19.94552 -19.87027,19.94552c-10.97344,0 -19.87027,-8.93053 -19.87027,-19.94552c0,-11.00711 8.89684,-19.93763 19.87027,-19.93763c10.97344,0 19.87027,8.93053 19.87027,19.93763"/>
  </g>
</svg>