<?xml version="1.0" encoding="UTF-8"?>
<svg width="752pt" height="752pt" version="1.1" viewBox="0 0 752 752" xmlns="http://www.w3.org/2000/svg">
 <g>
  <path d="m224.46 490.8v108.21h303.09v-108.21c-0.035156-34.902-13.902-68.367-38.559-93.07-24.66-24.699-58.098-38.625-93-38.727h-39.973c-34.902 0.10156-68.344 14.027-93 38.727-24.656 24.703-38.523 58.168-38.559 93.07zm131.56-103.38h39.973c27.367 0.089844 53.59 11.016 72.922 30.391 19.328 19.379 30.199 45.621 30.223 72.992v79.801h-246.26v-79.801c0.023437-27.371 10.891-53.613 30.223-72.992 19.332-19.375 45.551-30.301 72.922-30.391z"/>
  <path d="m469.58 246.52c0-24.816-9.8594-48.621-27.41-66.168-17.551-17.551-41.352-27.41-66.172-27.41-24.816 0-48.621 9.8594-66.168 27.41-17.551 17.547-27.41 41.352-27.41 66.168 0 24.82 9.8594 48.621 27.41 66.172 17.547 17.551 41.352 27.41 66.168 27.41 24.812-0.027344 48.602-9.8945 66.145-27.438s27.41-41.332 27.438-66.145zm-158.7 0h-0.003907c0-17.285 6.8672-33.863 19.094-46.082 12.223-12.223 28.801-19.086 46.09-19.082 17.285 0.003906 33.859 6.875 46.078 19.102 12.219 12.23 19.078 28.809 19.07 46.094-0.007813 17.285-6.8867 33.859-19.117 46.074-12.227 12.219-28.812 19.074-46.098 19.059-17.277-0.011719-33.844-6.8789-46.062-19.098s-19.09-28.785-19.102-46.066z"/>
  <path d="m357.96 525.37h22.398v23.207h-22.398z"/>
  <path d="m348.2 456.75c-0.0625-5.7383 1.1172-11.426 3.457-16.668 3.457-6.5352 9.4727-9.7539 18.941-9.7539v-0.003907c5.8086-0.59766 11.574 1.4375 15.723 5.543 3.1797 3.8047 4.8594 8.6367 4.7383 13.59-0.039062 3.8281-1.1914 7.5664-3.3164 10.75-1.3125 2.1445-2.9062 4.1016-4.7344 5.8242l-7.2461 7.0078v0.003906c-6.0039 5.1445-10.848 11.504-14.207 18.656-2.3398 6.8555-3.4141 14.074-3.1758 21.312v2.3672h20.461v-2.3672c-0.27344-5.4102 0.54688-10.824 2.4141-15.91 2.793-5.0195 6.4492-9.5078 10.797-13.262 5.9805-5.3867 11.391-11.367 16.148-17.855 3.0195-4.9844 4.5039-10.75 4.2656-16.574 0.28125-10.293-3.875-20.215-11.414-27.23-8.2148-7.1797-18.891-10.895-29.789-10.371-11.895-0.59375-23.473 3.918-31.824 12.406-7.9727 8.8281-12.188 20.414-11.746 32.301v2.3672h20.457z"/>
 </g>
</svg>