<?xml version="1.0" encoding="utf-8"?>
<!-- Generator: Adobe Illustrator 25.4.1, SVG Export Plug-In . SVG Version: 6.00 Build 0)  -->
<svg version="1.1" baseProfile="tiny" id="Capa_1" xmlns="http://www.w3.org/2000/svg" xmlns:xlink="http://www.w3.org/1999/xlink"
	 x="0px" y="0px" viewBox="0 0 24 24" overflow="visible" xml:space="preserve">
<g id="Capa_1_00000009592581078635079430000008681422817235027882_">
</g>
<g id="Capa_2_00000134250528750836035030000013619687885692678334_">
	<path fill-opacity="25%" d="M23,8.9v6.2c0,2.2-1.8,4-4,4H5c-2.2,0-4-1.8-4-4V9c0-2.2,1.8-4,4-4h14C21.2,4.9,23,6.7,23,8.9z"/>
	<g>
		<path d="M18.8,8.5c0.5,0.2,0.8,0.6,1.1,1.1c0.3,0.5,0.4,1.1,0.4,1.7c0,0.5-0.1,0.9-0.2,1.3c-0.2,0.5-0.4,0.8-0.8,1.1
			c-0.3,0.3-0.7,0.4-1.1,0.4c-0.7,0-1.1-0.2-1.2-0.7h-0.1c-0.2,0.5-0.5,0.7-1,0.7c-0.4,0-0.7-0.2-0.9-0.5s-0.4-0.6-0.4-1.1
			c0-0.4,0.1-0.8,0.2-1.1c0.2-0.4,0.3-0.7,0.6-0.9c0.2-0.2,0.5-0.3,0.8-0.3c0.2,0,0.5,0,0.6,0.2c0.2,0.2,0.3,0.3,0.4,0.5l0,0v-0.5
			h1.1l-0.3,2.3c0,0.1,0,0.2,0,0.2c0,0.2,0,0.2,0.1,0.3c0.1,0.1,0.2,0.1,0.3,0.1c0.3,0,0.5-0.2,0.8-0.6c0.2-0.4,0.3-0.8,0.3-1.3
			c0-0.8-0.2-1.3-0.6-1.7c-0.4-0.4-1-0.5-1.8-0.5c-0.7,0-1.2,0.2-1.8,0.5c-0.5,0.3-0.9,0.8-1.2,1.3c-0.3,0.6-0.5,1.2-0.5,1.9
			c0,0.5,0.1,0.9,0.3,1.3c0.2,0.4,0.5,0.7,0.8,0.8c0.4,0.2,0.8,0.3,1.2,0.3c0.3,0,0.5-0.1,0.8-0.2c0.3-0.1,0.5-0.2,0.8-0.3l0.3,0.8
			c-0.6,0.3-1.3,0.5-2,0.5c-0.6,0-1.2-0.2-1.7-0.4c-0.5-0.3-0.9-0.7-1.2-1.1c-0.2-0.5-0.4-1.1-0.4-1.8c0-0.8,0.2-1.6,0.5-2.3
			c0.4-0.7,0.9-1.2,1.5-1.6c0.6-0.4,1.5-0.6,2.3-0.6C17.8,8.1,18.4,8.2,18.8,8.5z M16.8,12.6c0.2-0.2,0.2-0.5,0.2-0.8
			c0-0.2-0.1-0.4-0.2-0.5c-0.1-0.2-0.2-0.2-0.4-0.2c-0.2,0-0.4,0.2-0.5,0.4c-0.2,0.2-0.2,0.5-0.2,0.9c0,0.2,0.1,0.4,0.2,0.5
			C16,13,16.2,13,16.3,13C16.5,13,16.7,12.8,16.8,12.6z"/>
	</g>
	<g>
		<path d="M3.1,15.8H2.2c-0.4,0-0.8-0.3-0.8-0.8l0,0c0-0.4,0.3-0.8,0.8-0.8h0.8c0.4,0,0.8,0.3,0.8,0.8l0,0
			C3.9,15.5,3.6,15.8,3.1,15.8z"/>
		<path d="M3.1,12.8H2.2c-0.4,0-0.8-0.3-0.8-0.8l0,0c0-0.4,0.3-0.8,0.8-0.8h0.8c0.4,0,0.8,0.3,0.8,0.8l0,0
			C3.9,12.5,3.6,12.8,3.1,12.8z"/>
		<path d="M3.1,9.8H2.2C1.8,9.8,1.4,9.5,1.4,9l0,0c0-0.4,0.3-0.8,0.8-0.8h0.8c0.4,0,0.8,0.3,0.8,0.8l0,0C3.9,9.5,3.6,9.8,3.1,9.8z"
			/>
	</g>
</g>
</svg>
