<?xml version="1.0" encoding="utf-8"?>
<!-- Generator: Adobe Illustrator 25.4.1, SVG Export Plug-In . SVG Version: 6.00 Build 0)  -->
<svg version="1.1" baseProfile="tiny" id="Capa_1" xmlns="http://www.w3.org/2000/svg" xmlns:xlink="http://www.w3.org/1999/xlink"
	 x="0px" y="0px" viewBox="0 0 24 24" overflow="visible" xml:space="preserve">
<g id="Capa_1_00000103956965400372328030000007856098834031023775_">
</g>
<g id="Capa_2_00000162350686814342464500000003743891809726130307_">
	<path fill-opacity="25%" d="M23,8.9v6.2c0,2.2-1.8,4-4,4H5c-2.2,0-4-1.8-4-4V9c0-2.2,1.8-4,4-4h14C21.2,4.9,23,6.7,23,8.9z"/>
	<path d="M19.8,10.3h-6.6c-0.4,0-0.8-0.3-0.8-0.8l0,0c0-0.4,0.3-0.8,0.8-0.8h6.5c0.4,0,0.8,0.3,0.8,0.8l0,0
		C20.6,10,20.2,10.3,19.8,10.3z"/>
	<path d="M16.2,12.8h-2.9c-0.4,0-0.8-0.3-0.8-0.8l0,0c0-0.4,0.3-0.8,0.8-0.8h2.8c0.4,0,0.8,0.3,0.8,0.8l0,0
		C16.9,12.5,16.6,12.8,16.2,12.8z"/>
	<circle cx="6.9" cy="9.5" r="2.3"/>
	<path d="M8.3,16.8H5.5c-1,0-1.8-0.8-1.8-1.8v-0.4c0-1,0.8-1.8,1.8-1.8h2.8c1,0,1.8,0.8,1.8,1.8V15C10.2,16,9.3,16.8,8.3,16.8z"/>
</g>
</svg>
